<?xml version="1.0" encoding="UTF-8" standalone="no"?>
<svg
   xmlns:dc="http://purl.org/dc/elements/1.1/"
   xmlns:cc="http://creativecommons.org/ns#"
   xmlns:rdf="http://www.w3.org/1999/02/22-rdf-syntax-ns#"
   xmlns:svg="http://www.w3.org/2000/svg"
   xmlns="http://www.w3.org/2000/svg"
   xmlns:sodipodi="http://sodipodi.sourceforge.net/DTD/sodipodi-0.dtd"
   xmlns:inkscape="http://www.inkscape.org/namespaces/inkscape"
   height="572"
   width="571.90002"
   version="1.1"
   id="Ebene_1"
   x="0px"
   y="0px"
   viewBox="0 0 571.90005 572.00002"
   enable-background="new 0 0 623.6 623.6"
   xml:space="preserve"
   sodipodi:docname="logo.svg"
   inkscape:version="1.0 (1.0+r73+1)"><metadata
   id="metadata961"><rdf:RDF><cc:Work
       rdf:about=""><dc:format>image/svg+xml</dc:format><dc:type
         rdf:resource="http://purl.org/dc/dcmitype/StillImage" /><dc:title /></cc:Work></rdf:RDF></metadata><defs
   id="defs959"><rect
     id="rect870"
     height="672.67318"
     width="336.02091"
     y="226.99975"
     x="275.14304" /><rect
     id="rect921"
     height="383.77811"
     width="1269.2802"
     y="-122.00531"
     x="-663.01611" /><rect
     x="-1256.6215"
     y="171.53946"
     width="432.81072"
     height="204.61679"
     id="rect987" /><rect
     x="-454.1546"
     y="268.19873"
     width="125.67708"
     height="126.69601"
     id="rect981" /><rect
     x="-1026.1678"
     y="157.75214"
     width="1002.5967"
     height="341.71185"
     id="rect971" /><rect
     x="-81.9785"
     y="222.57574"
     width="108.4824"
     height="133.72826"
     id="rect965" /></defs><sodipodi:namedview
   inkscape:snap-text-baseline="true"
   fit-margin-bottom="0"
   fit-margin-right="0"
   fit-margin-left="0"
   fit-margin-top="0"
   inkscape:document-rotation="0"
   pagecolor="#ffffff"
   bordercolor="#666666"
   borderopacity="1"
   objecttolerance="10"
   gridtolerance="10"
   guidetolerance="10"
   inkscape:pageopacity="0"
   inkscape:pageshadow="2"
   inkscape:window-width="1533"
   inkscape:window-height="1145"
   id="namedview957"
   showgrid="false"
   showborder="false"
   inkscape:zoom="0.40253832"
   inkscape:cx="-154.6929"
   inkscape:cy="558.84722"
   inkscape:window-x="67"
   inkscape:window-y="27"
   inkscape:window-maximized="1"
   inkscape:current-layer="Ebene_1" />
<path
   stroke="#ffffff"
   stroke-width="5"
   stroke-miterlimit="10"
   d="M 411.2,213.7 C 392.6,199.7 372.3,186.3 350.7,173.8 329,161.3 307.3,150.5 285.9,141.3 250.4,126.1 215.9,115.7 184.3,110 115.7,97.8 61,108.6 40.4,144.2 v 0 C 89.4,59.5 181,2.5 285.9,2.5 c 41.2,0 77.9,42 101.6,107.5 10.9,30.2 19.1,65.3 23.7,103.7 z"
   id="path944"
   style="stroke-width:18.8976378;stroke-miterlimit:10;stroke-dasharray:none" />
<path
   stroke="#ffffff"
   stroke-width="5"
   stroke-miterlimit="10"
   d="m 489.1,286 c -20.7,24.5 -47,49.2 -77.9,72.4 2.8,-23.1 4.3,-47.3 4.3,-72.4 0,-25.1 -1.5,-49.3 -4.3,-72.4 C 406.6,175.3 398.4,140.1 387.5,110 363.8,44.5 327.1,2.5 285.9,2.5 c 104.9,0 196.5,57 245.5,141.7 v 0 c 20.6,35.7 2.5,88.5 -42.3,141.8 z"
   id="path946"
   style="stroke-width:18.8976378;stroke-miterlimit:10;stroke-dasharray:none" />
<path
   stroke="#ffffff"
   stroke-width="5"
   stroke-miterlimit="10"
   d="m 569.4,286 c 0,51.6 -13.8,100 -37.9,141.8 v 0 C 510.9,463.5 456.2,474.2 387.6,462 356,456.4 321.5,445.9 286,430.7 c 21.4,-9.1 43.1,-20 64.8,-32.5 21.7,-12.5 41.9,-25.9 60.5,-39.9 30.9,-23.2 57.2,-47.8 77.9,-72.4 44.8,-53.3 62.9,-106.1 42.3,-141.7 v 0 c 24.1,41.8 37.9,90.2 37.9,141.8 z"
   id="path948"
   style="stroke-width:18.8976378;stroke-miterlimit:10;stroke-dasharray:none" />
<path
   stroke="#ffffff"
   stroke-width="5"
   stroke-miterlimit="10"
   d="m 531.4,427.8 c -49,84.7 -140.6,141.7 -245.5,141.7 -41.2,0 -77.9,-42 -101.6,-107.5 -10.9,-30.2 -19.1,-65.3 -23.7,-103.6 18.6,14 38.9,27.4 60.5,39.9 21.7,12.5 43.4,23.4 64.8,32.5 35.5,15.2 70,25.7 101.6,31.3 68.6,12.1 123.3,1.3 143.9,-34.3 z"
   id="path950"
   style="stroke-width:18.8976378;stroke-miterlimit:10;stroke-dasharray:none" />
<path
   stroke="#ffffff"
   stroke-width="5"
   stroke-miterlimit="10"
   d="M 285.9,569.5 C 181,569.5 89.4,512.5 40.4,427.8 v 0 c -20.6,-35.7 -2.5,-88.4 42.3,-141.7 20.7,-24.5 47,-49.2 77.9,-72.4 -2.8,23.1 -4.3,47.3 -4.3,72.4 0,25.1 1.5,49.3 4.3,72.4 4.6,38.3 12.8,73.5 23.7,103.6 23.8,65.4 60.4,107.4 101.6,107.4 z"
   id="path952"
   style="stroke-width:18.8976378;stroke-miterlimit:10;stroke-dasharray:none" />
<path
   stroke="#ffffff"
   stroke-width="5"
   stroke-miterlimit="10"
   d="m 285.9,141.3 c -21.4,9.1 -43.1,20 -64.8,32.5 -21.7,12.5 -41.9,25.9 -60.5,39.9 -30.9,23.2 -57.2,47.8 -77.9,72.4 -44.8,53.3 -62.9,106.1 -42.3,141.7 v 0 C 16.3,386.1 2.5,337.7 2.5,286 2.5,234.3 16.3,186 40.4,144.2 v 0 C 61,108.5 115.7,97.8 184.3,110 c 31.6,5.7 66.1,16.1 101.6,31.3 z"
   id="path954"
   style="stroke-width:18.8976378;stroke-miterlimit:10;stroke-dasharray:none" />
<text
   transform="translate(-250.42531,-36.06008)"
   style="font-size:250px;line-height:1;font-family:sans-serif;-inkscape-font-specification:'sans-serif, Normal';text-align:end;text-decoration:none;text-decoration-line:none;text-decoration-color:#000000;letter-spacing:0px;word-spacing:0px;white-space:pre;shape-inside:url(#rect870);fill:#000000;stroke-width:1.6893;stop-color:#000000"
   id="text868"
   xml:space="preserve"><tspan
     x="458.33203"
     y="416.94141"><tspan
       style="shape-inside:url(#rect870);stop-color:#000000">T</tspan></tspan></text></svg>
